<?xml version="1.0" encoding="iso-8859-1"?>
<!-- Generator: Adobe Illustrator 19.0.0, SVG Export Plug-In . SVG Version: 6.00 Build 0)  -->
<svg version="1.1" id="Layer_1" xmlns="http://www.w3.org/2000/svg" xmlns:xlink="http://www.w3.org/1999/xlink" x="0px" y="0px"
	 viewBox="0 0 275.249 275.249" style="enable-background:new 0 0 275.249 275.249;" xml:space="preserve">
<g>
	<g>
		<g>
			<g id="XMLID_5_">
				<g>
					<path style="fill:#C5CBCF;" d="M106.673,195.501c3.129-3.129,3.129-8.21,0-11.34L78.82,156.308l29.34-29.371
						c3.129-3.129,3.129-8.21,0-11.34c-3.129-3.129-8.21-3.129-11.34,0l-35.01,35.041c-3.16,3.129-3.16,8.21,0,11.34l33.523,33.523
						c1.58,1.58,3.625,2.355,5.67,2.355S105.124,197.081,106.673,195.501z M161.481,123.311c1.952-3.966,0.341-8.799-3.625-10.751
						c-3.966-1.983-8.768-0.372-10.751,3.594l-35.103,70.516c-1.983,3.966-0.372,8.768,3.594,10.751
						c1.146,0.558,2.355,0.837,3.563,0.837c2.943,0,5.794-1.642,7.188-4.461L161.481,123.311z M166.841,126.936l29.34,29.371
						l-27.853,27.853c-3.129,3.129-3.129,8.21,0,11.34c1.549,1.58,3.625,2.355,5.67,2.355s4.09-0.775,5.67-2.355l33.554-33.523
						c3.129-3.129,3.129-8.21,0-11.34l-35.041-35.041c-3.129-3.129-8.21-3.129-11.34,0S163.712,123.806,166.841,126.936z
						 M259.231,82.816v156.741H16.049V82.816H259.231z"/>
					<path style="fill:#2D213F;" d="M275.249,27.667v219.914c0,4.43-3.594,8.024-8.024,8.024H8.024
						c-4.431,0-8.024-3.594-8.024-8.024V27.667c0-4.431,3.594-8.024,8.024-8.024h259.2
						C271.655,19.643,275.249,23.237,275.249,27.667z M259.231,239.558V82.816H16.049v156.741H259.231z M259.231,66.767V35.661
						H93.196H16.049v31.106h77.147H259.231z"/>
					<path style="fill:#2D213F;" d="M213.222,150.637c3.129,3.129,3.129,8.21,0,11.34l-33.554,33.523
						c-1.58,1.58-3.625,2.355-5.67,2.355s-4.121-0.775-5.67-2.355c-3.129-3.129-3.129-8.21,0-11.34l27.853-27.853l-29.34-29.371
						c-3.129-3.129-3.129-8.21,0-11.34c3.129-3.129,8.21-3.129,11.34,0L213.222,150.637z"/>
					<path style="fill:#2D213F;" d="M157.856,112.56c3.966,1.952,5.577,6.785,3.625,10.751l-35.134,70.485
						c-1.394,2.819-4.245,4.461-7.188,4.461c-1.208,0-2.417-0.279-3.563-0.837c-3.966-1.983-5.577-6.785-3.594-10.751l35.103-70.516
						C149.088,112.188,153.89,110.577,157.856,112.56z"/>
					<path style="fill:#2D213F;" d="M106.673,184.161c3.129,3.129,3.129,8.21,0,11.34c-1.549,1.58-3.625,2.355-5.67,2.355
						s-4.09-0.775-5.67-2.355L61.81,161.978c-3.16-3.129-3.16-8.21,0-11.34l35.01-35.041c3.129-3.129,8.21-3.129,11.34,0
						c3.129,3.129,3.129,8.21,0,11.34l-29.34,29.371L106.673,184.161z"/>
					<path style="fill:#2D213F;" d="M93.196,42.384c5.081,0,9.233,4.121,9.233,9.233c0,5.081-4.152,9.202-9.233,9.202
						s-9.202-4.121-9.202-9.202C83.994,46.506,88.114,42.384,93.196,42.384z"/>
					<path style="fill:#454D5B;" d="M93.196,35.661H16.049v31.106h77.147h166.035V35.661H93.196z M41.269,60.819
						c-5.081,0-9.202-4.121-9.202-9.202c0-5.112,4.121-9.233,9.202-9.233s9.202,4.121,9.202,9.233
						C50.471,56.699,46.35,60.819,41.269,60.819z M67.449,60.819c-5.112,0-9.233-4.121-9.233-9.202c0-5.112,4.121-9.233,9.233-9.233
						c5.081,0,9.202,4.121,9.202,9.233C76.651,56.699,72.53,60.819,67.449,60.819z M93.196,60.819c-5.081,0-9.202-4.121-9.202-9.202
						c0-5.112,4.121-9.233,9.202-9.233c5.081,0,9.233,4.121,9.233,9.233C102.428,56.699,98.277,60.819,93.196,60.819z"/>
					<path style="fill:#2D213F;" d="M67.449,42.384c5.081,0,9.202,4.121,9.202,9.233c0,5.081-4.121,9.202-9.202,9.202
						c-5.112,0-9.233-4.121-9.233-9.202C58.216,46.506,62.337,42.384,67.449,42.384z"/>
					<path style="fill:#2D213F;" d="M41.269,42.384c5.081,0,9.202,4.121,9.202,9.233c0,5.081-4.121,9.202-9.202,9.202
						s-9.202-4.121-9.202-9.202C32.067,46.506,36.188,42.384,41.269,42.384z"/>
				</g>
			</g>
		</g>
		<path style="fill:#505967;" d="M210.818,66.767c-8.458-9.351-20.65-15.259-34.251-15.259h-74.151c0,0.037,0.012,0.071,0.012,0.108
			c0,5.081-4.152,9.202-9.233,9.202s-9.202-4.121-9.202-9.202c0-0.037,0.009-0.071,0.009-0.108h-7.365
			c0,0.037,0.009,0.071,0.009,0.108c0,5.081-4.121,9.202-9.202,9.202c-5.112,0-9.233-4.121-9.233-9.202
			c0-0.037,0.009-0.071,0.009-0.108h-7.767c0,0.037,0.009,0.071,0.009,0.108c0,5.081-4.121,9.202-9.202,9.202
			s-9.202-4.121-9.202-9.202c0-0.037,0.009-0.071,0.009-0.108h-7.492c-2.934,0-5.781,0.359-8.529,0.985v14.274h77.147
			C93.196,66.767,210.818,66.767,210.818,66.767z"/>
		<path style="fill:#EAEEEF;" d="M16.049,208.661c9.202,5.524,19.931,8.759,31.444,8.759h131.57
			c24.154,0,43.732-19.578,43.732-43.732V97.741c0-5.23-0.908-10.237-2.51-14.924H16.049V208.661z M166.841,115.596
			c3.129-3.129,8.21-3.129,11.34,0l35.041,35.041c3.129,3.129,3.129,8.21,0,11.34l-33.554,33.523c-1.58,1.58-3.625,2.355-5.67,2.355
			s-4.121-0.775-5.67-2.355c-3.129-3.129-3.129-8.21,0-11.34l27.853-27.853l-29.34-29.371
			C163.712,123.806,163.712,118.725,166.841,115.596z M112.002,186.671l35.103-70.516c1.983-3.966,6.785-5.577,10.751-3.594
			c3.966,1.952,5.577,6.785,3.625,10.751l-35.134,70.485c-1.394,2.819-4.245,4.461-7.188,4.461c-1.208,0-2.417-0.279-3.563-0.837
			C111.63,195.439,110.019,190.637,112.002,186.671z M61.81,150.637l35.01-35.041c3.129-3.129,8.21-3.129,11.34,0
			c3.129,3.129,3.129,8.21,0,11.34l-29.34,29.371l27.853,27.853c3.129,3.129,3.129,8.21,0,11.34c-1.549,1.58-3.625,2.355-5.67,2.355
			s-4.09-0.775-5.67-2.355L61.81,161.978C58.65,158.849,58.65,153.767,61.81,150.637z"/>
	</g>
</g>
<g>
</g>
<g>
</g>
<g>
</g>
<g>
</g>
<g>
</g>
<g>
</g>
<g>
</g>
<g>
</g>
<g>
</g>
<g>
</g>
<g>
</g>
<g>
</g>
<g>
</g>
<g>
</g>
<g>
</g>
</svg>
