<?xml version="1.0" encoding="iso-8859-1"?>
<!-- Generator: Adobe Illustrator 19.0.0, SVG Export Plug-In . SVG Version: 6.00 Build 0)  -->
<svg version="1.1" id="Capa_1" xmlns="http://www.w3.org/2000/svg" xmlns:xlink="http://www.w3.org/1999/xlink" x="0px" y="0px"
	 viewBox="0 0 384 384" style="enable-background:new 0 0 384 384;" xml:space="preserve">
<g>
	<g>
		<path d="M192,0c-30.88,0-56,25.12-56,56s25.12,56,56,56s56-25.12,56-56S222.88,0,192,0z M192,80c-13.232,0-24-10.768-24-24
			s10.768-24,24-24s24,10.768,24,24S205.232,80,192,80z"/>
	</g>
</g>
<g>
	<g>
		<path d="M263.16,209.68L208,182.112V152c0-0.048-0.016-0.088-0.016-0.128c-0.008-0.72-0.112-1.424-0.216-2.136
			c-0.048-0.344-0.048-0.704-0.12-1.04c-0.12-0.552-0.328-1.072-0.496-1.6c-0.144-0.456-0.248-0.936-0.44-1.376
			c-0.184-0.432-0.456-0.832-0.68-1.248c-0.256-0.48-0.48-0.984-0.784-1.44c-0.384-0.568-0.856-1.08-1.32-1.6
			c-0.216-0.248-0.4-0.528-0.632-0.76c-0.368-0.368-0.8-0.664-1.2-0.992c-0.4-0.328-0.776-0.688-1.208-0.984
			c-0.296-0.2-0.64-0.336-0.952-0.52c-0.616-0.352-1.216-0.712-1.88-0.976c-0.04-0.016-0.072-0.04-0.112-0.056l-40-16
			c-5.944-2.376-12.728-0.976-17.256,3.544l-16,16c-3,3-4.688,7.072-4.688,11.312v64c0,8.832,7.168,16,16,16c8.832,0,16-7.168,16-16
			v-57.368l3.848-3.856L176,162.832v89.392l-54.312,108.624c-3.952,7.904-0.744,17.512,7.16,21.472
			c2.296,1.144,4.736,1.68,7.144,1.68c5.864,0,11.52-3.24,14.328-8.848l44.112-88.232L216,317.128V368c0,8.832,7.168,16,16,16
			c8.832,0,16-7.168,16-16v-56c0-3.336-1.04-6.584-2.984-9.304L208,250.872v-32.984l40.84,20.424
			c2.304,1.152,4.744,1.688,7.152,1.688c5.864,0,11.52-3.24,14.328-8.848C274.272,223.248,271.064,213.64,263.16,209.68z"/>
	</g>
</g>
<g>
	<g>
		<path d="M32,192c0-42.736,16.648-82.92,46.864-113.136c6.248-6.248,6.248-16.376,0-22.624c-6.24-6.248-16.376-6.248-22.624,0
			C19.976,92.504,0,140.712,0,192c0,51.288,19.976,99.504,56.24,135.76c3.128,3.128,7.216,4.688,11.312,4.688
			s8.192-1.56,11.312-4.688c6.248-6.248,6.248-16.376,0-22.624C48.648,274.92,32,234.736,32,192z"/>
	</g>
</g>
<g>
	<g>
		<path d="M327.76,56.24c-6.248-6.248-16.384-6.248-22.624,0c-6.248,6.248-6.248,16.376,0,22.624
			C335.352,109.08,352,149.264,352,192c0,42.736-16.648,82.92-46.864,113.136c-6.248,6.248-6.248,16.376,0,22.624
			c3.12,3.128,7.216,4.688,11.312,4.688s8.184-1.56,11.312-4.688C364.024,291.504,384,243.288,384,192
			C384,140.712,364.024,92.496,327.76,56.24z"/>
	</g>
</g>
<g>
</g>
<g>
</g>
<g>
</g>
<g>
</g>
<g>
</g>
<g>
</g>
<g>
</g>
<g>
</g>
<g>
</g>
<g>
</g>
<g>
</g>
<g>
</g>
<g>
</g>
<g>
</g>
<g>
</g>
</svg>
